<mxfile host="app.diagrams.net" modified="2022-10-07T16:10:35.547Z" agent="5.0 (Macintosh; Intel Mac OS X 10_15_7) AppleWebKit/537.36 (KHTML, like Gecko) Chrome/105.0.0.0 Safari/537.36" etag="cVBRPK_qv8CiMdqKMK-Z" version="20.4.0" type="github">
  <diagram id="JA0JSkUV2G3kcNLsSyt6" name="Page-1">
    <mxGraphModel dx="1042" dy="682" grid="1" gridSize="10" guides="1" tooltips="1" connect="1" arrows="1" fold="1" page="1" pageScale="1" pageWidth="827" pageHeight="1169" math="0" shadow="0">
      <root>
        <mxCell id="0" />
        <mxCell id="1" parent="0" />
        <mxCell id="eKoGlDHYbYCB5Y0y22-y-1" value="TEST" style="rounded=0;whiteSpace=wrap;html=1;" vertex="1" parent="1">
          <mxGeometry x="350" y="320" width="120" height="60" as="geometry" />
        </mxCell>
      </root>
    </mxGraphModel>
  </diagram>
</mxfile>
